<svg width="385" height="90" viewBox="0 0 385 90" fill="none" xmlns="http://www.w3.org/2000/svg">
<path d="M383.864 62.6442C383.864 63.7914 382.926 64.9385 381.57 64.9385C380.263 64.9385 379.275 63.8412 379.275 62.6442C379.275 60.9733 380.632 60.2949 381.57 60.2949C382.198 60.2999 383.864 60.7139 383.864 62.6442ZM383.555 62.6442C383.555 61.497 382.722 60.659 381.625 60.659C380.582 60.659 379.694 61.492 379.694 62.5893C379.694 63.8961 380.842 64.5196 381.575 64.5196C382.667 64.5794 383.555 63.6916 383.555 62.6442ZM382.717 63.8462H382.039L381.57 62.8038H381.256V63.8462H380.682V61.2875H381.675C382.143 61.2875 382.772 61.3922 382.772 62.0157C382.772 62.3798 382.562 62.5893 382.198 62.694L382.717 63.8462ZM382.093 62.0706C382.093 61.7563 381.834 61.7065 381.465 61.7065H381.206V62.4895H381.465C381.829 62.4397 382.093 62.3848 382.093 62.0706Z" fill="#2E323B"/>
<path d="M130.239 66.648C130.671 66.008 131.263 65.488 132.015 65.088C132.783 64.688 133.655 64.488 134.631 64.488C135.767 64.488 136.791 64.768 137.703 65.328C138.631 65.888 139.359 66.688 139.887 67.728C140.431 68.752 140.703 69.944 140.703 71.304C140.703 72.664 140.431 73.872 139.887 74.928C139.359 75.968 138.631 76.776 137.703 77.352C136.791 77.928 135.767 78.216 134.631 78.216C133.639 78.216 132.767 78.024 132.015 77.64C131.279 77.24 130.687 76.728 130.239 76.104V78H126.879V60.24H130.239V66.648ZM137.271 71.304C137.271 70.504 137.103 69.816 136.767 69.24C136.447 68.648 136.015 68.2 135.471 67.896C134.943 67.592 134.367 67.44 133.743 67.44C133.135 67.44 132.559 67.6 132.015 67.92C131.487 68.224 131.055 68.672 130.719 69.264C130.399 69.856 130.239 70.552 130.239 71.352C130.239 72.152 130.399 72.848 130.719 73.44C131.055 74.032 131.487 74.488 132.015 74.808C132.559 75.112 133.135 75.264 133.743 75.264C134.367 75.264 134.943 75.104 135.471 74.784C136.015 74.464 136.447 74.008 136.767 73.416C137.103 72.824 137.271 72.12 137.271 71.304ZM155.864 64.704L147.632 84.288H144.056L146.936 77.664L141.608 64.704H145.376L148.808 73.992L152.288 64.704H155.864ZM162.578 69.6C162.578 67.952 162.946 66.48 163.682 65.184C164.434 63.872 165.45 62.856 166.73 62.136C168.026 61.4 169.474 61.032 171.074 61.032C172.946 61.032 174.586 61.512 175.994 62.472C177.402 63.432 178.386 64.76 178.946 66.456H175.082C174.698 65.656 174.154 65.056 173.45 64.656C172.762 64.256 171.962 64.056 171.05 64.056C170.074 64.056 169.202 64.288 168.434 64.752C167.682 65.2 167.09 65.84 166.658 66.672C166.242 67.504 166.034 68.48 166.034 69.6C166.034 70.704 166.242 71.68 166.658 72.528C167.09 73.36 167.682 74.008 168.434 74.472C169.202 74.92 170.074 75.144 171.05 75.144C171.962 75.144 172.762 74.944 173.45 74.544C174.154 74.128 174.698 73.52 175.082 72.72H178.946C178.386 74.432 177.402 75.768 175.994 76.728C174.602 77.672 172.962 78.144 171.074 78.144C169.474 78.144 168.026 77.784 166.73 77.064C165.45 76.328 164.434 75.312 163.682 74.016C162.946 72.72 162.578 71.248 162.578 69.6ZM187.72 78.216C186.44 78.216 185.288 77.936 184.264 77.376C183.24 76.8 182.432 75.992 181.84 74.952C181.264 73.912 180.976 72.712 180.976 71.352C180.976 69.992 181.272 68.792 181.864 67.752C182.472 66.712 183.296 65.912 184.336 65.352C185.376 64.776 186.536 64.488 187.816 64.488C189.096 64.488 190.256 64.776 191.296 65.352C192.336 65.912 193.152 66.712 193.744 67.752C194.352 68.792 194.656 69.992 194.656 71.352C194.656 72.712 194.344 73.912 193.72 74.952C193.112 75.992 192.28 76.8 191.224 77.376C190.184 77.936 189.016 78.216 187.72 78.216ZM187.72 75.288C188.328 75.288 188.896 75.144 189.424 74.856C189.968 74.552 190.4 74.104 190.72 73.512C191.04 72.92 191.2 72.2 191.2 71.352C191.2 70.088 190.864 69.12 190.192 68.448C189.536 67.76 188.728 67.416 187.768 67.416C186.808 67.416 186 67.76 185.344 68.448C184.704 69.12 184.384 70.088 184.384 71.352C184.384 72.616 184.696 73.592 185.32 74.28C185.96 74.952 186.76 75.288 187.72 75.288ZM204.489 64.512C206.073 64.512 207.353 65.016 208.329 66.024C209.305 67.016 209.793 68.408 209.793 70.2V78H206.433V70.656C206.433 69.6 206.169 68.792 205.641 68.232C205.113 67.656 204.393 67.368 203.481 67.368C202.553 67.368 201.817 67.656 201.273 68.232C200.745 68.792 200.481 69.6 200.481 70.656V78H197.121V64.704H200.481V66.36C200.929 65.784 201.497 65.336 202.185 65.016C202.889 64.68 203.657 64.512 204.489 64.512ZM218.076 78.216C216.988 78.216 216.012 78.024 215.148 77.64C214.284 77.24 213.596 76.704 213.084 76.032C212.588 75.36 212.316 74.616 212.268 73.8H215.652C215.716 74.312 215.964 74.736 216.396 75.072C216.844 75.408 217.396 75.576 218.052 75.576C218.692 75.576 219.188 75.448 219.54 75.192C219.908 74.936 220.092 74.608 220.092 74.208C220.092 73.776 219.868 73.456 219.42 73.248C218.988 73.024 218.292 72.784 217.332 72.528C216.34 72.288 215.524 72.04 214.884 71.784C214.26 71.528 213.716 71.136 213.252 70.608C212.804 70.08 212.58 69.368 212.58 68.472C212.58 67.736 212.788 67.064 213.204 66.456C213.636 65.848 214.244 65.368 215.028 65.016C215.828 64.664 216.764 64.488 217.836 64.488C219.42 64.488 220.684 64.888 221.628 65.688C222.572 66.472 223.092 67.536 223.188 68.88H219.972C219.924 68.352 219.7 67.936 219.3 67.632C218.916 67.312 218.396 67.152 217.74 67.152C217.132 67.152 216.66 67.264 216.324 67.488C216.004 67.712 215.844 68.024 215.844 68.424C215.844 68.872 216.068 69.216 216.516 69.456C216.964 69.68 217.66 69.912 218.604 70.152C219.564 70.392 220.356 70.64 220.98 70.896C221.604 71.152 222.14 71.552 222.588 72.096C223.052 72.624 223.292 73.328 223.308 74.208C223.308 74.976 223.092 75.664 222.66 76.272C222.244 76.88 221.636 77.36 220.836 77.712C220.052 78.048 219.132 78.216 218.076 78.216ZM229.978 67.464V73.896C229.978 74.344 230.082 74.672 230.29 74.88C230.514 75.072 230.882 75.168 231.394 75.168H232.954V78H230.842C228.01 78 226.594 76.624 226.594 73.872V67.464H225.01V64.704H226.594V61.416H229.978V64.704H232.954V67.464H229.978ZM234.507 71.304C234.507 69.96 234.771 68.768 235.299 67.728C235.843 66.688 236.571 65.888 237.483 65.328C238.411 64.768 239.443 64.488 240.579 64.488C241.571 64.488 242.435 64.688 243.171 65.088C243.923 65.488 244.523 65.992 244.971 66.6V64.704H248.355V78H244.971V76.056C244.539 76.68 243.939 77.2 243.171 77.616C242.419 78.016 241.547 78.216 240.555 78.216C239.435 78.216 238.411 77.928 237.483 77.352C236.571 76.776 235.843 75.968 235.299 74.928C234.771 73.872 234.507 72.664 234.507 71.304ZM244.971 71.352C244.971 70.536 244.811 69.84 244.491 69.264C244.171 68.672 243.739 68.224 243.195 67.92C242.651 67.6 242.067 67.44 241.443 67.44C240.819 67.44 240.243 67.592 239.715 67.896C239.187 68.2 238.755 68.648 238.419 69.24C238.099 69.816 237.939 70.504 237.939 71.304C237.939 72.104 238.099 72.808 238.419 73.416C238.755 74.008 239.187 74.464 239.715 74.784C240.259 75.104 240.835 75.264 241.443 75.264C242.067 75.264 242.651 75.112 243.195 74.808C243.739 74.488 244.171 74.04 244.491 73.464C244.811 72.872 244.971 72.168 244.971 71.352ZM259.004 64.512C260.588 64.512 261.868 65.016 262.844 66.024C263.82 67.016 264.308 68.408 264.308 70.2V78H260.948V70.656C260.948 69.6 260.684 68.792 260.156 68.232C259.628 67.656 258.908 67.368 257.996 67.368C257.068 67.368 256.332 67.656 255.788 68.232C255.26 68.792 254.996 69.6 254.996 70.656V78H251.636V64.704H254.996V66.36C255.444 65.784 256.012 65.336 256.7 65.016C257.404 64.68 258.172 64.512 259.004 64.512ZM271.416 67.464V73.896C271.416 74.344 271.52 74.672 271.728 74.88C271.952 75.072 272.32 75.168 272.832 75.168H274.392V78H272.28C269.448 78 268.032 76.624 268.032 73.872V67.464H266.448V64.704H268.032V61.416H271.416V64.704H274.392V67.464H271.416ZM281.711 69.6C281.711 67.952 282.079 66.48 282.815 65.184C283.567 63.872 284.583 62.856 285.863 62.136C287.159 61.4 288.607 61.032 290.207 61.032C292.079 61.032 293.719 61.512 295.127 62.472C296.535 63.432 297.519 64.76 298.079 66.456H294.215C293.831 65.656 293.287 65.056 292.583 64.656C291.895 64.256 291.095 64.056 290.183 64.056C289.207 64.056 288.335 64.288 287.567 64.752C286.815 65.2 286.223 65.84 285.791 66.672C285.375 67.504 285.167 68.48 285.167 69.6C285.167 70.704 285.375 71.68 285.791 72.528C286.223 73.36 286.815 74.008 287.567 74.472C288.335 74.92 289.207 75.144 290.183 75.144C291.095 75.144 291.895 74.944 292.583 74.544C293.287 74.128 293.831 73.52 294.215 72.72H298.079C297.519 74.432 296.535 75.768 295.127 76.728C293.735 77.672 292.095 78.144 290.207 78.144C288.607 78.144 287.159 77.784 285.863 77.064C284.583 76.328 283.567 75.312 282.815 74.016C282.079 72.72 281.711 71.248 281.711 69.6ZM306.853 78.216C305.573 78.216 304.421 77.936 303.397 77.376C302.373 76.8 301.565 75.992 300.973 74.952C300.397 73.912 300.109 72.712 300.109 71.352C300.109 69.992 300.405 68.792 300.997 67.752C301.605 66.712 302.429 65.912 303.469 65.352C304.509 64.776 305.669 64.488 306.949 64.488C308.229 64.488 309.389 64.776 310.429 65.352C311.469 65.912 312.285 66.712 312.877 67.752C313.485 68.792 313.789 69.992 313.789 71.352C313.789 72.712 313.477 73.912 312.853 74.952C312.245 75.992 311.413 76.8 310.357 77.376C309.317 77.936 308.149 78.216 306.853 78.216ZM306.853 75.288C307.461 75.288 308.029 75.144 308.557 74.856C309.101 74.552 309.533 74.104 309.853 73.512C310.173 72.92 310.333 72.2 310.333 71.352C310.333 70.088 309.997 69.12 309.325 68.448C308.669 67.76 307.861 67.416 306.901 67.416C305.941 67.416 305.133 67.76 304.477 68.448C303.837 69.12 303.517 70.088 303.517 71.352C303.517 72.616 303.829 73.592 304.453 74.28C305.093 74.952 305.893 75.288 306.853 75.288ZM323.622 64.512C325.206 64.512 326.486 65.016 327.462 66.024C328.438 67.016 328.926 68.408 328.926 70.2V78H325.566V70.656C325.566 69.6 325.302 68.792 324.774 68.232C324.246 67.656 323.526 67.368 322.614 67.368C321.686 67.368 320.95 67.656 320.406 68.232C319.878 68.792 319.614 69.6 319.614 70.656V78H316.254V64.704H319.614V66.36C320.062 65.784 320.63 65.336 321.318 65.016C322.022 64.68 322.79 64.512 323.622 64.512ZM336.033 67.464V73.896C336.033 74.344 336.137 74.672 336.345 74.88C336.569 75.072 336.937 75.168 337.449 75.168H339.009V78H336.897C334.065 78 332.649 76.624 332.649 73.872V67.464H331.065V64.704H332.649V61.416H336.033V64.704H339.009V67.464H336.033ZM340.562 71.304C340.562 69.96 340.826 68.768 341.354 67.728C341.898 66.688 342.626 65.888 343.538 65.328C344.466 64.768 345.498 64.488 346.634 64.488C347.626 64.488 348.49 64.688 349.226 65.088C349.978 65.488 350.578 65.992 351.026 66.6V64.704H354.41V78H351.026V76.056C350.594 76.68 349.994 77.2 349.226 77.616C348.474 78.016 347.602 78.216 346.61 78.216C345.49 78.216 344.466 77.928 343.538 77.352C342.626 76.776 341.898 75.968 341.354 74.928C340.826 73.872 340.562 72.664 340.562 71.304ZM351.026 71.352C351.026 70.536 350.866 69.84 350.546 69.264C350.226 68.672 349.794 68.224 349.25 67.92C348.706 67.6 348.122 67.44 347.498 67.44C346.874 67.44 346.298 67.592 345.77 67.896C345.242 68.2 344.81 68.648 344.474 69.24C344.154 69.816 343.994 70.504 343.994 71.304C343.994 72.104 344.154 72.808 344.474 73.416C344.81 74.008 345.242 74.464 345.77 74.784C346.314 75.104 346.89 75.264 347.498 75.264C348.122 75.264 348.706 75.112 349.25 74.808C349.794 74.488 350.226 74.04 350.546 73.464C350.866 72.872 351.026 72.168 351.026 71.352ZM356.827 71.352C356.827 69.976 357.107 68.776 357.667 67.752C358.227 66.712 359.003 65.912 359.995 65.352C360.987 64.776 362.123 64.488 363.403 64.488C365.051 64.488 366.411 64.904 367.483 65.736C368.571 66.552 369.299 67.704 369.667 69.192H366.043C365.851 68.616 365.523 68.168 365.059 67.848C364.611 67.512 364.051 67.344 363.379 67.344C362.419 67.344 361.659 67.696 361.099 68.4C360.539 69.088 360.259 70.072 360.259 71.352C360.259 72.616 360.539 73.6 361.099 74.304C361.659 74.992 362.419 75.336 363.379 75.336C364.739 75.336 365.627 74.728 366.043 73.512H369.667C369.299 74.952 368.571 76.096 367.483 76.944C366.395 77.792 365.035 78.216 363.403 78.216C362.123 78.216 360.987 77.936 359.995 77.376C359.003 76.8 358.227 76 357.667 74.976C357.107 73.936 356.827 72.728 356.827 71.352ZM376.041 67.464V73.896C376.041 74.344 376.145 74.672 376.353 74.88C376.577 75.072 376.945 75.168 377.457 75.168H379.017V78H376.905C374.073 78 372.657 76.624 372.657 73.872V67.464H371.073V64.704H372.657V61.416H376.041V64.704H379.017V67.464H376.041Z" fill="#313944"/>
<path d="M0 25.7607C0 21.6982 0.907156 18.0696 2.72147 14.8748C4.57522 11.6406 7.07976 9.13607 10.2351 7.3612C13.4299 5.54689 16.9993 4.63973 20.9435 4.63973C25.5581 4.63973 29.6009 5.82298 33.0718 8.18947C36.5426 10.556 38.9683 13.8296 40.3487 18.0104H30.8236C29.877 16.0383 28.536 14.5593 26.8005 13.5732C25.1046 12.5872 23.1325 12.0942 20.8843 12.0942C18.4784 12.0942 16.3288 12.6661 14.4356 13.8099C12.5819 14.9143 11.1225 16.4919 10.0576 18.5429C9.03212 20.5938 8.51938 22.9998 8.51938 25.7607C8.51938 28.4822 9.03212 30.8881 10.0576 32.9785C11.1225 35.0295 12.5819 36.6268 14.4356 37.7706C16.3288 38.875 18.4784 39.4272 20.8843 39.4272C23.1325 39.4272 25.1046 38.9342 26.8005 37.9481C28.536 36.9227 29.877 35.4239 30.8236 33.4518H40.3487C38.9683 37.672 36.5426 40.9654 33.0718 43.3319C29.6403 45.659 25.5976 46.8225 20.9435 46.8225C16.9993 46.8225 13.4299 45.9351 10.2351 44.1602C7.07976 42.3459 4.57522 39.8413 2.72147 36.6466C0.907156 33.4518 0 29.8232 0 25.7607Z" fill="#313944"/>
<path d="M55.706 18.7795C56.7709 17.0441 58.1514 15.6834 59.8473 14.6973C61.5828 13.7113 63.5548 13.2183 65.7636 13.2183V21.9151H63.5746C60.9714 21.9151 58.9993 22.5265 57.6583 23.7492C56.3568 24.9719 55.706 27.1017 55.706 30.1387V46.4675H47.4232V13.6916H55.706V18.7795Z" fill="#313944"/>
<path d="M101.811 29.3696C101.811 30.5528 101.732 31.6178 101.574 32.5644H77.6136C77.8108 34.9309 78.6391 36.7846 80.0984 38.1256C81.5578 39.4666 83.3524 40.1371 85.4822 40.1371C88.5586 40.1371 90.7476 38.8158 92.0492 36.1733H100.983C100.036 39.3286 98.2218 41.9317 95.5398 43.9827C92.8578 45.9942 89.5644 47 85.6597 47C82.5044 47 79.6646 46.3097 77.1403 44.9293C74.6555 43.5094 72.7031 41.5176 71.2832 38.9539C69.9028 36.3902 69.2126 33.4321 69.2126 30.0795C69.2126 26.6876 69.9028 23.7097 71.2832 21.146C72.6637 18.5823 74.5963 16.6102 77.0811 15.2298C79.566 13.8493 82.4255 13.1591 85.6597 13.1591C88.7756 13.1591 91.5562 13.8296 94.0016 15.1706C96.4864 16.5116 98.3993 18.4246 99.7403 20.9094C101.121 23.3548 101.811 26.1748 101.811 29.3696ZM93.2325 27.0031C93.193 24.8733 92.4239 23.1773 90.9251 21.9151C89.4264 20.6136 87.5923 19.9628 85.423 19.9628C83.3721 19.9628 81.6366 20.5938 80.2168 21.856C78.8363 23.0787 77.9883 24.7944 77.6728 27.0031H93.2325Z" fill="#313944"/>
<path d="M105.727 29.9612C105.727 26.6481 106.378 23.7097 107.679 21.146C109.02 18.5823 110.815 16.6102 113.063 15.2298C115.351 13.8493 117.895 13.1591 120.695 13.1591C123.14 13.1591 125.27 13.6521 127.084 14.6382C128.938 15.6242 130.417 16.8666 131.522 18.3654V13.6916H139.863V46.4675H131.522V41.6754C130.457 43.2136 128.978 44.4954 127.084 45.5209C125.231 46.507 123.081 47 120.636 47C117.875 47 115.351 46.29 113.063 44.8701C110.815 43.4502 109.02 41.4584 107.679 38.8947C106.378 36.2916 105.727 33.3138 105.727 29.9612ZM131.522 30.0795C131.522 28.068 131.127 26.3523 130.338 24.9324C129.55 23.4731 128.485 22.3687 127.144 21.6193C125.803 20.8305 124.363 20.4361 122.825 20.4361C121.287 20.4361 119.867 20.8108 118.565 21.5602C117.263 22.3096 116.199 23.4139 115.37 24.8733C114.581 26.2932 114.187 27.9891 114.187 29.9612C114.187 31.9333 114.581 33.6687 115.37 35.1675C116.199 36.6268 117.263 37.7509 118.565 38.5398C119.906 39.3286 121.326 39.723 122.825 39.723C124.363 39.723 125.803 39.3483 127.144 38.5989C128.485 37.8101 129.55 36.7057 130.338 35.2858C131.127 33.8265 131.522 32.0911 131.522 30.0795Z" fill="#313944"/>
<path d="M157.596 20.4952V36.3507C157.596 37.4551 157.853 38.2637 158.366 38.7764C158.918 39.2497 159.825 39.4864 161.087 39.4864H164.933V46.4675H159.726C152.745 46.4675 149.255 43.0755 149.255 36.2916V20.4952H145.35V13.6916H149.255V5.58633H157.596V13.6916H164.933V20.4952H157.596Z" fill="#313944"/>
<path d="M175.09 9.78686C173.631 9.78686 172.408 9.33328 171.422 8.42612C170.476 7.47952 170.003 6.316 170.003 4.93554C170.003 3.55509 170.476 2.41128 171.422 1.50412C172.408 0.557527 173.631 0.0842285 175.09 0.0842285C176.55 0.0842285 177.753 0.557527 178.699 1.50412C179.685 2.41128 180.178 3.55509 180.178 4.93554C180.178 6.316 179.685 7.47952 178.699 8.42612C177.753 9.33328 176.55 9.78686 175.09 9.78686ZM179.173 13.6916V46.4675H170.89V13.6916H179.173Z" fill="#313944"/>
<path d="M201.023 38.8356L209.305 13.6916H218.12L205.992 46.4675H195.935L183.865 13.6916H192.74L201.023 38.8356Z" fill="#313944"/>
<path d="M260.637 29.3696C260.637 30.5528 260.558 31.6178 260.4 32.5644H236.439C236.636 34.9309 237.465 36.7846 238.924 38.1256C240.383 39.4666 242.178 40.1371 244.308 40.1371C247.384 40.1371 249.573 38.8158 250.875 36.1733H259.808C258.862 39.3286 257.047 41.9317 254.365 43.9827C251.683 45.9942 248.39 47 244.485 47C241.33 47 238.49 46.3097 235.966 44.9293C233.481 43.5094 231.529 41.5176 230.109 38.9539C228.728 36.3902 228.038 33.4321 228.038 30.0795C228.038 26.6876 228.728 23.7097 230.109 21.146C231.489 18.5823 233.422 16.6102 235.907 15.2298C238.391 13.8493 241.251 13.1591 244.485 13.1591C247.601 13.1591 250.382 13.8296 252.827 15.1706C255.312 16.5116 257.225 18.4246 258.566 20.9094C259.946 23.3548 260.637 26.1748 260.637 29.3696ZM252.058 27.0031C252.019 24.8733 251.249 23.1773 249.751 21.9151C248.252 20.6136 246.418 19.9628 244.249 19.9628C242.198 19.9628 240.462 20.5938 239.042 21.856C237.662 23.0787 236.814 24.7944 236.498 27.0031H252.058Z" fill="#313944"/>
<path d="M217.42 45.3419C218.406 46.249 219.629 46.7026 221.088 46.7026C222.547 46.7026 223.75 46.249 224.697 45.3419C225.683 44.3953 226.176 43.2318 226.176 41.8513C226.176 40.4709 225.683 39.3271 224.697 38.4199C223.75 37.4733 222.547 37 221.088 37C219.629 37 218.406 37.4733 217.42 38.4199C216.473 39.3271 216 40.4709 216 41.8513C216 43.2318 216.473 44.3953 217.42 45.3419Z" fill="#663399"/>
<path d="M311.705 5.17207V46.4674H303.422V19.6077L292.359 46.4674H286.088L274.965 19.6077V46.4674H266.683V5.17207H276.089L289.223 35.8773L302.357 5.17207H311.705Z" fill="#663399"/>
<path d="M317.764 29.9611C317.764 26.648 318.415 23.7096 319.717 21.1459C321.058 18.5822 322.852 16.6101 325.1 15.2297C327.388 13.8492 329.932 13.159 332.732 13.159C335.178 13.159 337.307 13.652 339.122 14.638C340.976 15.6241 342.455 16.8665 343.559 18.3653V13.6915H351.901V46.4674H343.559V41.6752C342.494 43.2135 341.015 44.4953 339.122 45.5208C337.268 46.5068 335.119 46.9999 332.673 46.9999C329.912 46.9999 327.388 46.2899 325.1 44.87C322.852 43.4501 321.058 41.4583 319.717 38.8946C318.415 36.2915 317.764 33.3136 317.764 29.9611ZM343.559 30.0794C343.559 28.0679 343.165 26.3522 342.376 24.9323C341.587 23.473 340.522 22.3686 339.181 21.6192C337.84 20.8304 336.4 20.436 334.862 20.436C333.324 20.436 331.904 20.8107 330.602 21.56C329.301 22.3094 328.236 23.4138 327.408 24.8731C326.619 26.293 326.224 27.989 326.224 29.9611C326.224 31.9332 326.619 33.6686 327.408 35.1674C328.236 36.6267 329.301 37.7508 330.602 38.5396C331.943 39.3285 333.363 39.7229 334.862 39.7229C336.4 39.7229 337.84 39.3482 339.181 38.5988C340.522 37.81 341.587 36.7056 342.376 35.2857C343.165 33.8264 343.559 32.0909 343.559 30.0794Z" fill="#663399"/>
<path d="M368.273 13.6915V46.4674H359.99V13.6915H368.273Z" fill="#663399"/>
<path d="M384.739 2.68726V46.4674H376.456V2.68726H384.739Z" fill="#663399"/>
<path d="M360.42 8.34189C361.406 9.24905 362.629 9.70263 364.088 9.70263C365.547 9.70263 366.75 9.24905 367.697 8.34189C368.683 7.39529 369.176 6.23177 369.176 4.85131C369.176 3.47086 368.683 2.32705 367.697 1.4199C366.75 0.473298 365.547 0 364.088 0C362.629 0 361.406 0.473298 360.42 1.4199C359.473 2.32705 359 3.47086 359 4.85131C359 6.23177 359.473 7.39529 360.42 8.34189Z" fill="#313944"/>
</svg>
