<svg width="160" height="160" viewBox="0 0 160 160" fill="none" xmlns="http://www.w3.org/2000/svg">
<path d="M80 160C124.183 160 160 124.183 160 80C160 35.8172 124.183 0 80 0C35.8172 0 0 35.8172 0 80C0 124.183 35.8172 160 80 160Z" fill="#C4EDFE"/>
<path opacity="0.2" d="M22.5326 24.3997C18.9326 28.1331 15.5993 32.2664 12.7993 36.6664V123.6C15.7326 128.133 19.1993 132.4 22.9327 136.266H137.066C142.799 130.533 147.599 123.866 151.333 116.533V43.7331C147.733 36.6664 143.066 30.1331 137.466 24.3997H22.5326Z" fill="#00367D"/>
<path d="M19.0679 131.733C22.5345 135.733 26.2679 139.466 30.4012 142.666H129.601C133.735 139.333 137.601 135.733 140.935 131.733H19.0679Z" fill="#9BD9FE"/>
<path d="M22.1327 135.2H137.866C141.333 131.6 144.399 127.6 147.199 123.466V35.8664C147.199 33.1997 145.066 31.0664 142.399 31.0664H13.5993C10.9326 31.0664 8.79932 33.1997 8.79932 35.8664V116.266C12.266 123.2 16.7993 129.6 22.1327 135.2Z" fill="white"/>
<path d="M147.2 55.7331H8.6665V35.8664C8.6665 33.1997 10.7998 31.0664 13.4665 31.0664H142.267C144.933 31.0664 147.067 33.1997 147.067 35.8664V55.7331H147.2Z" fill="#0A89F1"/>
<path d="M147.2 115.333H113.6V96.1331H147.2V94.7997H113.6V75.5997H147.2V74.2664H113.6V55.7331H112.267V74.2664H78.6665V55.7331H77.3332V74.2664H43.7332V55.7331H42.3998V74.2664H8.6665V75.5997H42.2665V94.7997H8.6665V96.1331H42.2665V115.333H8.6665V116.266C8.79984 116.4 8.79984 116.533 8.93317 116.666H42.2665V135.2H43.5998V116.666H77.1998V135.2H78.5332V116.666H112.133V135.2H113.467V116.666H147.067V115.333H147.2ZM77.1998 115.333H43.7332V96.1331H77.3332V115.333H77.1998ZM77.1998 94.7997H43.7332V75.5997H77.3332V94.7997H77.1998ZM112.267 115.333H78.6665V96.1331H112.267V115.333ZM112.267 94.7997H78.6665V75.5997H112.267V94.7997Z" fill="#4FC3F7"/>
<path d="M116.266 48.8C119.285 48.8 121.733 46.3525 121.733 43.3334C121.733 40.3142 119.285 37.8667 116.266 37.8667C113.247 37.8667 110.8 40.3142 110.8 43.3334C110.8 46.3525 113.247 48.8 116.266 48.8Z" fill="#00367D"/>
<path d="M124.666 31.0667L119.066 43.3333L116.8 31.0667H124.666Z" fill="#00367D"/>
<path d="M116.266 46.8C114.4 46.8 112.8 45.2 112.8 43.3333V21.4667C112.8 19.6 114.4 18 116.266 18C118.133 18 119.733 19.6 119.733 21.4667V43.3333C119.733 45.2 118.266 46.8 116.266 46.8Z" fill="#65BEFE"/>
<path d="M116.266 36.5333C115.2 36.5333 114.266 35.6 114.266 34.5333V21.4666C114.266 20.4 115.2 19.4666 116.266 19.4666C117.333 19.4666 118.266 20.4 118.266 21.4666V34.5333C118.4 35.6 117.466 36.5333 116.266 36.5333Z" fill="#9BD9FE"/>
<path d="M38.933 48.8C41.9521 48.8 44.3996 46.3525 44.3996 43.3334C44.3996 40.3142 41.9521 37.8667 38.933 37.8667C35.9138 37.8667 33.4663 40.3142 33.4663 43.3334C33.4663 46.3525 35.9138 48.8 38.933 48.8Z" fill="#00367D"/>
<path d="M47.9995 31.0667L42.2661 43.3333L40.1328 31.0667H47.9995Z" fill="#00367D"/>
<path d="M38.933 46.8C37.0663 46.8 35.4663 45.2 35.4663 43.3333V21.4667C35.4663 19.6 37.0663 18 38.933 18C40.7996 18 42.3996 19.6 42.3996 21.4667V43.3333C42.2663 45.2 40.7996 46.8 38.933 46.8Z" fill="#65BEFE"/>
<path d="M38.9331 36.5333C37.8664 36.5333 36.9331 35.6 36.9331 34.5333V21.4666C36.9331 20.4 37.8664 19.4666 38.9331 19.4666C39.9998 19.4666 40.9331 20.4 40.9331 21.4666V34.5333C40.9331 35.6 39.9998 36.5333 38.9331 36.5333Z" fill="#9BD9FE"/>
<path d="M147.067 55.7331H8.6665V57.7331H147.067V55.7331Z" fill="#9BD9FE"/>
<path d="M113.599 55.7331H112.266V57.7331H113.599V55.7331Z" fill="#04A9F4"/>
<path d="M78.5321 55.7331H77.1987V57.7331H78.5321V55.7331Z" fill="#04A9F4"/>
<path d="M43.599 55.7331H42.2656V57.7331H43.599V55.7331Z" fill="#04A9F4"/>
<path d="M96.6673 94.9329C95.4673 95.5995 96.534 97.4662 97.734 96.7995C102.401 94.6662 108.934 97.3329 111.334 101.733C113.601 105.733 111.734 110.8 108.534 113.733C102.534 119.2 91.6007 119.333 84.4007 116.266C80.2673 114.533 75.334 110.533 77.2007 105.466C78.6673 101.733 83.0673 98.9329 86.4007 96.9329C93.6007 92.6662 101.734 91.3329 110.001 92.1329C110.934 92.2662 111.201 90.6662 110.267 90.5329C101.601 88.7995 92.2673 90.5329 84.534 94.9329C78.0007 98.6662 69.8673 105.733 75.8673 113.6C84.6673 125.2 114.267 124 114.801 106.133C115.201 97.5995 104.267 90.6662 96.6673 94.9329Z" fill="#0A89F1"/>
</svg>
