<svg id="Layer_1" data-name="Layer 1" xmlns="http://www.w3.org/2000/svg" viewBox="0 0 47 47"><title>metal_on-light</title><path d="M35,5.3a.88.88,0,0,0,.77.26A19.2,19.2,0,0,0,45.82,0H36.3a16.25,16.25,0,0,0-1.56,4.54A.88.88,0,0,0,35,5.3Z" fill="#231f20" opacity="0.4"/><path d="M47,36.68A23.65,23.65,0,0,0,36.3,47h9.52l.22-.21q.51-.52,1-1Z" fill="#231f20" opacity="0.4"/><path d="M12.22,11.74a.92.92,0,0,0-1,1c.32,1.92,1.5,6,5.78,10.27a19.44,19.44,0,0,0,10.27,5.78.91.91,0,0,0,.77-.27.88.88,0,0,0,.26-.76,19.44,19.44,0,0,0-5.78-10.27C18.21,13.24,14.14,12.06,12.22,11.74Z" fill="#231f20" opacity="0.4"/><path d="M0,45.77a18.85,18.85,0,0,0,4.82-9.25.92.92,0,0,0-1-1A16.14,16.14,0,0,0,0,36.68Z" fill="#231f20" opacity="0.4"/></svg>