<?xml version="1.0" encoding="UTF-8"?>
<svg width="120px" height="120px" viewBox="0 0 120 120" version="1.1" xmlns="http://www.w3.org/2000/svg" xmlns:xlink="http://www.w3.org/1999/xlink">
    <!-- Generator: Sketch 53 (72520) - https://sketchapp.com -->
    <title>Upgrade store visual</title>
    <desc>Created with Sketch.</desc>
    <g id="Page-1" stroke="none" stroke-width="1" fill="none" fill-rule="evenodd">
        <g id="Upgrade-site-–-Sidebar" transform="translate(-290.000000, -285.000000)">
            <g id="Upgrade-store-visual" transform="translate(290.000000, 285.000000)">
                <path d="M120,60 C120,93.137 93.137,120 60,120 C26.863,120 0,93.137 0,60 C0,26.863 26.863,0 60,0 C93.137,0 120,26.863 120,60" id="Fill-1" fill="#9BD9FE"></path>
                <path d="M4.5752,83 C7.7232,90.579 12.3842,97.366 18.1762,103 L101.8252,103 C107.6162,97.366 112.2762,90.579 115.4252,83 L4.5752,83 Z" id="Fill-5" fill="#D1F1FF"></path>
                <path d="M115.4248,83 L100.9998,83 L100.9998,93 L110.1038,93 C112.1768,89.859 113.9638,86.516 115.4248,83" id="Fill-7" fill="#9BD9FE"></path>
                <path d="M27.0468,9.8667 C22.5768,12.8107 18.5278,16.3357 14.9998,20.3347 L14.9998,92.9997 L27.0468,82.9997 L27.0468,9.8667 Z" id="Fill-9" fill="#006ED9"></path>
                <path d="M0,60 C0,72.194 3.647,83.531 9.896,93 L15,93 L15,20.335 C5.671,30.91 0,44.789 0,60" id="Fill-11" fill="#65BEFE"></path>
                <path d="M106.0468,21.5435 C102.5518,17.3625 98.4978,13.6685 93.9998,10.5695 L93.9998,83.0005 L106.0468,93.0005 L106.0468,21.5435 Z" id="Fill-13" fill="#65BEFE"></path>
                <path d="M106.0468,93 L110.1038,93 C116.3528,83.531 119.9998,72.194 119.9998,60 C119.9998,45.364 114.7538,31.958 106.0468,21.543 L106.0468,93 Z" id="Fill-15" fill="#006ED9"></path>
                <polygon id="Fill-17" fill="#0A89F1" points="21 93 101 93 101 29 21 29"></polygon>
                <polygon id="Fill-19" fill="#0060C5" points="21.04 51 101 79.62 101 51"></polygon>
                <path d="M69,93 L53,93 L53,67.014 C53,66.454 53.454,66 54.014,66 L67.986,66 C68.546,66 69,66.454 69,67.014 L69,93 Z" id="Fill-20" fill="#65BEFE"></path>
                <path d="M67.9863,66 L62.9483,66 L69.0003,68.166 L69.0003,67.014 C69.0003,66.454 68.5463,66 67.9863,66" id="Fill-21" fill="#65BEFE"></path>
                <path d="M96.0537,84 L73.9467,84 C73.4237,84 72.9997,83.576 72.9997,83.053 L72.9997,66.946 C72.9997,66.424 73.4237,66 73.9467,66 L96.0537,66 C96.5757,66 96.9997,66.424 96.9997,66.946 L96.9997,83.053 C96.9997,83.576 96.5757,84 96.0537,84" id="Fill-22" fill="#0060C5"></path>
                <path d="M96.0537,66 L73.9467,66 C73.4237,66 72.9997,66.424 72.9997,66.946 L72.9997,69.598 L96.9997,78.188 L96.9997,66.946 C96.9997,66.424 96.5757,66 96.0537,66" id="Fill-23" fill="#00367D"></path>
                <path d="M48.0537,84 L25.9467,84 C25.4237,84 24.9997,83.576 24.9997,83.053 L24.9997,66.946 C24.9997,66.424 25.4237,66 25.9467,66 L48.0537,66 C48.5757,66 48.9997,66.424 48.9997,66.946 L48.9997,83.053 C48.9997,83.576 48.5757,84 48.0537,84" id="Fill-24" fill="#0060C5"></path>
                <path d="M21,51 L13,60 C13,62.026 14.553,64 16.768,64 C18.982,64 20.778,62.357 20.778,60.332 C20.778,62.357 22.573,64 24.788,64 C27.003,64 28.798,62.357 28.798,60.332 C28.798,62.357 30.594,64 32.809,64 C35.023,64 36.818,62.357 36.818,60.332 C36.818,62.357 38.613,64 40.828,64 C43.043,64 44.839,62.357 44.839,60.332 C44.839,62.357 46.634,64 48.849,64 C51.063,64 52.858,62.357 52.858,60.332 C52.858,62.357 54.654,64 56.869,64 C59.084,64 60.879,62.357 60.879,60.332 C60.879,62.357 62.674,64 64.889,64 C67.104,64 68.899,62.357 68.899,60.332 C68.899,62.357 70.694,64 72.909,64 C75.124,64 76.919,62.357 76.919,60.332 C76.919,62.357 78.715,64 80.93,64 C83.145,64 84.939,62.357 84.939,60.332 C84.939,62.357 86.734,64 88.949,64 C91.164,64 92.96,62.357 92.96,60.332 C92.96,62.357 94.755,64 96.97,64 C99.185,64 100.979,62.357 100.979,60.332 C100.979,62.357 102.775,64 104.99,64 C107.205,64 109,62.026 109,60 L101,51 L21,51 Z" id="Fill-25" fill="#D1F1FF"></path>
                <polygon id="Fill-26" fill="#D1F1FF" points="88.9619 24 32.7959 24 19.7579 29 101.9999 29"></polygon>
                <polygon id="Fill-27" fill="#65BEFE" points="20 32 102 32 102 29 20 29"></polygon>
                <path d="M89.0029,96 L90.9999,96 L89.9999,78 L77.9999,78 L76.9999,96 L78.9999,96 L79.7899,94.42 C79.9189,94.163 80.1819,94 80.4699,94 L87.5299,94 C87.8179,94 88.0809,94.162 88.2109,94.419 L89.0029,96 Z" id="Fill-28" fill="#65BEFE"></path>
                <path d="M91.5341,47 L30.4671,47 C29.6561,47 29.0001,46.343 29.0001,45.534 L29.0001,37.466 C29.0001,36.656 29.6561,36 30.4671,36 L91.5341,36 C92.3441,36 93.0001,36.656 93.0001,37.466 L93.0001,45.534 C93.0001,46.343 92.3441,47 91.5341,47" id="Fill-29" fill="#65BEFE"></path>
                <path d="M67,93 L55,93 L55,68.091 C55,68.041 55.041,68 55.091,68 L66.909,68 C66.959,68 67,68.041 67,68.091 L67,93 Z" id="Fill-30" fill="#0060C5"></path>
                <path d="M109,60 L13,60 C13,62.026 14.553,64 16.768,64 C18.982,64 20.778,62.357 20.778,60.331 C20.778,62.357 22.573,64 24.788,64 C27.003,64 28.798,62.357 28.798,60.331 C28.798,62.357 30.594,64 32.809,64 C35.023,64 36.818,62.357 36.818,60.331 C36.818,62.357 38.613,64 40.828,64 C43.043,64 44.839,62.357 44.839,60.331 C44.839,62.357 46.634,64 48.849,64 C51.063,64 52.858,62.357 52.858,60.331 C52.858,62.357 54.654,64 56.869,64 C59.084,64 60.879,62.357 60.879,60.331 C60.879,62.357 62.674,64 64.889,64 C67.104,64 68.899,62.357 68.899,60.331 C68.899,62.357 70.694,64 72.909,64 C75.124,64 76.919,62.357 76.919,60.331 C76.919,62.357 78.715,64 80.93,64 C83.145,64 84.939,62.357 84.939,60.331 C84.939,62.357 86.734,64 88.949,64 C91.164,64 92.96,62.357 92.96,60.331 C92.96,62.357 94.755,64 96.97,64 C99.185,64 100.979,62.357 100.979,60.331 C100.979,62.357 102.775,64 104.99,64 C107.205,64 109,62.026 109,60" id="Fill-31" fill="#65BEFE"></path>
                <path d="M101.8252,103 L18.1762,103 C19.6232,104.409 21.1422,105.742 22.7262,107 L97.2732,107 C98.8572,105.742 100.3772,104.409 101.8252,103" id="Fill-32" fill="#65BEFE"></path>
            </g>
        </g>
    </g>
</svg>