<svg xmlns="http://www.w3.org/2000/svg" viewBox="0 0 120 120"><title>blog</title><g id="Layer_2" data-name="Layer 2"><g id="Layer_1-2" data-name="Layer 1"><circle cx="60" cy="60" r="60" fill="#9bd9fe"/><path d="M.68,51l118.65,0A60,60,0,0,0,.68,51Z" fill="#c4edfe"/><path d="M28.39,111l63.2,0a60.86,60.86,0,0,0,8.06-6l-79.33,0A59.25,59.25,0,0,0,28.39,111Z" fill="#65befe"/><path d="M60,120a59.71,59.71,0,0,0,31.6-9l-63.2,0A59.68,59.68,0,0,0,60,120Z" fill="#0a89f1"/><path d="M90,65h3.44a.87.87,0,0,1,.79.51l12,25.77a1.21,1.21,0,0,1-1.1,1.72H98L87.44,66Z" fill="#65befe"/><path d="M103,87.68h0a1.29,1.29,0,0,0-.09-.5l-10.29-23H29.39l-10.29,23a1.2,1.2,0,0,0-.1.52h0v4.1h0A1.2,1.2,0,0,0,20.19,93H101.8A1.19,1.19,0,0,0,103,91.78h0Z" fill="#00367d"/><path d="M30.23,23H91.79A1.22,1.22,0,0,1,93,24.22V64.14a0,0,0,0,1,0,0H29a0,0,0,0,1,0,0V24.22A1.22,1.22,0,0,1,30.23,23Z" fill="#0060c5"/><path d="M30.23,23a1.12,1.12,0,0,0-.63.2L93,46.71V24.22A1.21,1.21,0,0,0,91.8,23H30.23Z" fill="#00367d"/><path d="M102.88,87.29,93,64,29,64l-9.9,23.3A1.21,1.21,0,0,0,20.18,89H101.8A1.21,1.21,0,0,0,102.88,87.29Z" fill="#0a89f1"/><rect x="52.99" y="88" width="16" height="2" rx="1" fill="#0a89f1"/><path d="M48.83,87H73.15a.75.75,0,0,0,.75-.83l-.83-7.5a.75.75,0,0,0-.75-.67H49.67a.76.76,0,0,0-.75.67l-.83,7.49A.75.75,0,0,0,48.83,87Z" fill="#65befe"/><polygon points="26.99 76 94.99 76 91 66.01 31 65.99 26.99 76" fill="#65befe"/><rect x="32" y="26" width="58" height="35" fill="#fff"/><polygon points="90 45.01 90.01 26.01 37.82 26 90 45.01" fill="#c4edfe"/><rect x="27" y="76" width="68" height="1" fill="#00367d"/><polygon points="29.4 69.99 29 70.99 93 71.01 92.6 70.01 29.4 69.99" fill="#0a89f1"/><polygon points="94.19 74.01 93.8 73.01 28.2 72.99 27.8 73.99 94.19 74.01" fill="#0a89f1"/><polygon points="30.6 66.99 30.2 67.99 91.8 68.01 91.4 67.01 30.6 66.99" fill="#0a89f1"/><polygon points="37 65.99 36 65.99 33 75.99 34 75.99 37 65.99" fill="#0a89f1"/><polygon points="44 66 43 66 41 76 42 76 44 66" fill="#0a89f1"/><polygon points="51 66 50 66 49 76 50 76 51 66" fill="#0a89f1"/><rect x="57" y="66" width="1" height="10" fill="#0a89f1"/><rect x="64" y="66" width="1" height="10" fill="#0a89f1"/><polygon points="72 66 71 66 72 76 73 76 72 66" fill="#0a89f1"/><polygon points="79 66 78 66 80 76 81 76 79 66" fill="#0a89f1"/><polygon points="86 66.01 85 66.01 88 76.01 89 76.01 86 66.01" fill="#0a89f1"/><rect x="48" y="35" width="37" height="18" rx="1.15" fill="#c4edfe"/><path d="M85,43.19v-7A1.15,1.15,0,0,0,83.86,35H62.53Z" fill="#65befe"/><rect x="68" y="42" width="9" height="3" rx="1" fill="#65befe"/><path d="M68,36a1,1,0,0,0,1,1h7a1,1,0,0,0,1-1Z" fill="#0a89f1"/><rect x="73" y="50" width="11" height="2" rx="1" fill="#fff"/><rect x="37" y="31" width="37" height="26" rx="1.38" fill="#65befe"/><path d="M74,39.18v-6.8A1.38,1.38,0,0,0,72.63,31H51.54Z" fill="#0a89f1"/><rect x="39" y="36" width="33" height="19" fill="#fff"/><polygon points="72 38.45 72.01 36 65.28 36 72 38.45" fill="#ebf7f6"/><rect x="75" y="46" width="9" height="3" rx="1" fill="#0a89f1"/><rect x="75" y="38" width="9" height="3" rx="1" fill="#0a89f1"/><path d="M79,41h4a1,1,0,0,0,1-1V39a1,1,0,0,0-1-1H76a1,1,0,0,0-1,1v.53Z" fill="#00367d"/><rect x="45" y="39" width="21" height="1" fill="#0a89f1"/><rect x="45" y="42" width="19" height="1" fill="#0a89f1"/><rect x="45" y="45" width="20" height="1" fill="#0a89f1"/><rect x="45" y="48" width="7" height="1" fill="#0a89f1"/><rect x="53" y="47" width="1" height="2" fill="#65befe"/><path d="M.73,53.76C8.46,53.76,12,52,12,50c0-1.61-7.76-1.93-10.8-2Q.63,50.84.32,53.75Z" fill="#9bd9fe"/><path d="M14,55c0-2.1-5.87-3.82-13.33-4A59.93,59.93,0,0,0,0,59C7.79,58.9,14,57.15,14,55Z" fill="#0a89f1"/><path d="M3.77,72c-.87,0-1.72,0-2.56.05A54.66,54.66,0,0,0,3.69,80h.08C12.73,80,20,78.2,20,76S12.73,72,3.77,72Z" fill="#65befe"/><path d="M10.07,50.32a.72.72,0,0,1,0,1.33A35.17,35.17,0,0,1,.42,53a59.81,59.81,0,0,0,3,26.87C9.5,79.37,14,77.83,14,76V51c0-2-5.48-3.7-12.58-4-.14.66-.27,1.33-.4,2A34.17,34.17,0,0,1,10.07,50.32Z" fill="#c4edfe"/><path d="M14,50.89c-.18-2-5.59-3.61-12.57-3.87-.14.66-.27,1.33-.4,2a34.17,34.17,0,0,1,9.05,1.31.72.72,0,0,1,0,1.33A35.17,35.17,0,0,1,.42,53c-.07.67-.14,1.34-.2,2C8.92,55,13.81,53,14,50.89Z" fill="#fff"/><path d="M105.59,68a1.42,1.42,0,0,0-.59.14l-.82-.7v1.91h0a1.42,1.42,0,0,0,.22.83l9.92,15.27A59.35,59.35,0,0,0,119.45,68Z" fill="#0a89f1"/><path d="M105.59,66a1.41,1.41,0,0,0-1.18,2.18l10.46,16.09A59.47,59.47,0,0,0,119.7,66Z" fill="#65befe"/></g></g></svg>