<svg id="Layer_1" data-name="Layer 1" xmlns="http://www.w3.org/2000/svg" viewBox="0 0 44 68"><title>honeycomb_on-light_44x68</title><g opacity="0.5"><path d="M20,68H16V59.06A3.64,3.64,0,0,0,14.39,56l-7-4.67A7.64,7.64,0,0,1,4,44.94V25.06a7.64,7.64,0,0,1,3.39-6.39l7-4.67A3.64,3.64,0,0,0,16,10.94V0h4V10.94a7.64,7.64,0,0,1-3.39,6.39L9.61,22A3.64,3.64,0,0,0,8,25.06V44.94A3.64,3.64,0,0,0,9.61,48l7,4.67A7.64,7.64,0,0,1,20,59.06Z" fill="#231f20"/><path d="M30,68H26V59.06a7.64,7.64,0,0,1,3.39-6.39l7-4.67A3.64,3.64,0,0,0,38,44.94V25.06A3.64,3.64,0,0,0,36.39,22l-7-4.67A7.64,7.64,0,0,1,26,10.94V0h4V10.94A3.64,3.64,0,0,0,31.61,14l7,4.67A7.64,7.64,0,0,1,42,25.06V44.94a7.64,7.64,0,0,1-3.39,6.39l-7,4.67A3.64,3.64,0,0,0,30,59.06Z" fill="#231f20"/></g></svg>