<svg width="49" height="48" viewBox="0 0 49 48" fill="none" xmlns="http://www.w3.org/2000/svg">
<path d="M40.4363 24.1664C41.1048 23.5538 41.5565 22.6442 41.8094 21.4189C41.8997 20.992 41.9358 20.5278 41.9358 20.045C41.9358 19.5066 41.8274 18.9311 41.6106 18.3556C41.3398 17.6316 40.9784 17.2417 40.5448 17.1489C39.8945 17.019 39.2623 17.3901 38.666 18.2999C38.1784 19.0053 37.8713 19.748 37.7087 20.5092C37.6184 20.9362 37.5823 21.4004 37.5823 21.8644C37.5823 22.4028 37.6904 22.9783 37.9074 23.5538C38.1782 24.2779 38.5396 24.6678 38.9733 24.7605C39.4248 24.8533 39.9126 24.6492 40.4363 24.1664Z" fill="black" fill-opacity="0.6"/>
<path d="M29.1098 24.1664C29.7781 23.5538 30.2298 22.6442 30.4827 21.4189C30.573 20.992 30.6273 20.5278 30.6091 20.045C30.6091 19.5066 30.501 18.9311 30.284 18.3556C30.0132 17.6316 29.6518 17.2417 29.2181 17.1489C28.5679 17.019 27.9356 17.3901 27.3395 18.2999C26.8517 19.0053 26.5446 19.748 26.382 20.5092C26.2917 20.9362 26.2556 21.4004 26.2556 21.8644C26.2556 22.4028 26.3639 22.9783 26.5806 23.5538C26.8517 24.2779 27.213 24.6678 27.6464 24.7605C28.0981 24.8533 28.5859 24.6492 29.1098 24.1664Z" fill="black" fill-opacity="0.6"/>
<path fill-rule="evenodd" clip-rule="evenodd" d="M0.953369 14C0.953369 10.6863 3.63966 8 6.95337 8H42.9534C46.2671 8 48.9534 10.6863 48.9534 14V28C48.9534 31.3137 46.2671 34 42.9534 34H32.9534L34.9534 40L21.9534 34H6.95337C3.63966 34 0.953369 31.3137 0.953369 28V14ZM6.40234 12.7861C5.89649 12.8232 5.51719 13.0088 5.26427 13.3616C5.01135 13.6956 4.90303 14.1227 4.97542 14.6054C6.04109 21.5673 7.03473 26.2644 7.95598 28.6966C8.31722 29.5875 8.73263 30.0146 9.22042 29.9775C9.97918 29.9218 10.8824 28.845 11.9482 26.747C12.5082 25.5589 13.3753 23.7766 14.5497 21.4004C15.5251 24.9091 16.8619 27.5453 18.5419 29.3092C19.0117 29.8105 19.4993 30.0331 19.969 29.996C20.3846 29.9589 20.7096 29.7361 20.9265 29.3277C21.1071 28.9749 21.1795 28.5663 21.1432 28.1025C21.0349 26.413 21.1975 24.0551 21.649 21.0289C22.1186 17.9101 22.6968 15.6637 23.4014 14.327C23.5459 14.0485 23.6 13.77 23.582 13.4359C23.5459 13.0088 23.3652 12.6561 23.022 12.3776C22.6788 12.0991 22.2995 11.9692 21.8839 12.0062C21.36 12.0434 20.9625 12.3034 20.6917 12.8232C19.5717 14.921 18.7768 18.3185 18.3071 23.034C17.6207 21.2517 17.0426 19.1538 16.5909 16.6847C16.3922 15.5893 15.9045 15.0696 15.1097 15.1253C14.5677 15.1624 14.116 15.5337 13.7546 16.2392L9.79848 23.9809C9.1482 21.289 8.53404 18.0029 7.97403 14.1227C7.84766 13.1572 7.32376 12.7117 6.40234 12.7861ZM41.1952 14.1227C42.4777 14.4014 43.4353 15.1068 44.0855 16.2763C44.6636 17.2788 44.9707 18.4857 44.9526 19.9337C44.9526 21.8458 44.4829 23.5909 43.5436 25.1876C42.4597 27.0442 41.0506 27.9724 39.2984 27.9724C38.9911 27.9724 38.666 27.9353 38.3228 27.8609C37.0403 27.5825 36.0828 26.8771 35.4325 25.7075C34.8545 24.6863 34.5654 23.4611 34.5654 22.0315C34.5654 20.1193 35.035 18.3742 35.9745 16.7962C37.0764 14.9396 38.4855 14.0114 40.2196 14.0114C40.5269 14.0114 40.8519 14.0485 41.1952 14.1227ZM29.8866 14.1227C31.1511 14.4014 32.1266 15.1068 32.7769 16.2763C33.355 17.2788 33.644 18.4857 33.644 19.9337C33.644 21.8458 33.1744 23.5909 32.235 25.1876C31.1511 27.0442 29.742 27.9724 27.9898 27.9724C27.6825 27.9724 27.3576 27.9353 27.0142 27.8609C25.7317 27.5825 24.7742 26.8771 24.1239 25.7075C23.5459 24.6863 23.2568 23.4611 23.2568 22.0315C23.2568 20.1193 23.7266 18.3742 24.6659 16.7962C25.7678 14.9396 27.1769 14.0114 28.911 14.0114C29.2183 14.0114 29.5434 14.0485 29.8866 14.1227Z" fill="black" fill-opacity="0.6"/>
</svg>
