<svg id="Layer_1" data-name="Layer 1" xmlns="http://www.w3.org/2000/svg" viewBox="0 0 215 215"><title>confetti_on-dark_215x215</title><g opacity="0.55"><path d="M73.57,211.18A4.85,4.85,0,0,0,66.36,215h2.52a2.68,2.68,0,0,1,.25-.72,2.39,2.39,0,0,1,1.42-1.13,2.48,2.48,0,0,1,.65-.09A2.34,2.34,0,0,1,73.51,215H76A4.85,4.85,0,0,0,73.57,211.18Z" fill="#fff"/><path d="M66.36,0a4.79,4.79,0,0,0,.16,1.76,4.86,4.86,0,0,0,2.31,2.92,4.8,4.8,0,0,0,2.36.61,4.87,4.87,0,0,0,4.26-2.5h0A4.78,4.78,0,0,0,76,0H73.51a2.32,2.32,0,0,1-.24,1.58,2.37,2.37,0,0,1-3.22.91,2.37,2.37,0,0,1-1.13-1.41,2.47,2.47,0,0,1,0-1.08Z" fill="#fff"/><path d="M148,86.49h.18l36.91-5.28a1.25,1.25,0,0,0,1-.72,1.28,1.28,0,0,0-.09-1.2l-17.7-27.21a1.19,1.19,0,0,0-1.07-.56,1.24,1.24,0,0,0-1,.61L146.91,84.61A1.25,1.25,0,0,0,148,86.49Zm19.27-31.36L182.77,79l-32.38,4.63Z" fill="#fff"/><path d="M185.16,139c2-.16,2.94.61,4.19,1.59a8,8,0,0,0,5.25,2.13c.22,0,.44,0,.68,0a7.8,7.8,0,0,0,5.51-3c1.08-1.16,1.93-2.08,3.89-2.23s2.94.61,4.19,1.58a7.78,7.78,0,0,0,5.92,2.12l.21,0v-2.52l-.41,0c-1.93.16-2.94-.61-4.19-1.59A7.67,7.67,0,0,0,199,138c-1.08,1.16-1.93,2.08-3.88,2.23s-2.94-.61-4.19-1.58a7.81,7.81,0,0,0-5.93-2.12,1.25,1.25,0,0,0,.2,2.5Z" fill="#fff"/><path d="M144.21,37.79a3.78,3.78,0,0,0,3.21,4.26h0a3.12,3.12,0,0,0,.52,0A3.76,3.76,0,0,0,149.61,35a3.81,3.81,0,0,0,3.06-3.19,3.77,3.77,0,0,0-2.07-3.88,3.77,3.77,0,1,0-4.41-4.23,3.75,3.75,0,0,0,2.09,3.89,3.75,3.75,0,0,0-1,7.07A3.77,3.77,0,0,0,144.21,37.79Zm5.89-14.87a1.27,1.27,0,1,1-1.19,2,1.26,1.26,0,0,1-.24-.94A1.27,1.27,0,0,1,150.1,22.92Zm-1,7.07a1.27,1.27,0,1,1-1.43,1.08A1.27,1.27,0,0,1,149.11,30Zm-1,7.07a1.27,1.27,0,1,1-1.43,1.08A1.27,1.27,0,0,1,148.12,37.06Z" fill="#fff"/><path d="M178.81,126a4.26,4.26,0,0,0,1.49.27,4.17,4.17,0,0,0,1.73-.37,4.25,4.25,0,0,0,2.21-2.35,4.2,4.2,0,0,0,0-3,4.21,4.21,0,0,0,3.75,2.31,4.22,4.22,0,0,0,3.93-2.73,4.21,4.21,0,1,0-7.83.09,4.2,4.2,0,0,0-7.65,3.45,4.18,4.18,0,0,0-5.48-2,4.21,4.21,0,0,0,.24,7.78,4.31,4.31,0,0,0,1.49.27,4.19,4.19,0,0,0,3.89-5.78A4.2,4.2,0,0,0,178.81,126Zm7.53-8a1.68,1.68,0,0,1,.9-.95,1.71,1.71,0,0,1,.7-.16,1.62,1.62,0,0,1,.61.12,1.7,1.7,0,0,1,.95.89,1.66,1.66,0,0,1,0,1.31,1.71,1.71,0,0,1-3.16.1A1.75,1.75,0,0,1,186.34,118Zm-7.64,3.45a1.73,1.73,0,0,1,.89-1,1.78,1.78,0,0,1,.71-.15,1.56,1.56,0,0,1,.6.11,1.71,1.71,0,0,1,1,.89,1.75,1.75,0,0,1,0,1.31,1.71,1.71,0,0,1-2.21,1,1.68,1.68,0,0,1-.95-.9A1.7,1.7,0,0,1,178.7,121.44Zm-4.45,4.66a1.7,1.7,0,0,1-.9,1,1.68,1.68,0,0,1-1.3,0,1.71,1.71,0,0,1,.6-3.31,1.87,1.87,0,0,1,.61.11,1.71,1.71,0,0,1,1,.9A1.68,1.68,0,0,1,174.25,126.1Z" fill="#fff"/><path d="M95.49,47.32a5.85,5.85,0,0,0-3.14-3.54,3.35,3.35,0,0,1-1.58-5,5.79,5.79,0,0,0-2.6-8.23,3.36,3.36,0,0,1-1.58-5,5.84,5.84,0,0,0,.54-4.7,1.25,1.25,0,0,0-2.39.75,3.45,3.45,0,0,1-.41,2.89,5.8,5.8,0,0,0,2.6,8.24,3.36,3.36,0,0,1,1.58,5A5.81,5.81,0,0,0,91.1,46a3.34,3.34,0,0,1,1.58,5,5.92,5.92,0,0,0-.54,4.7,1.26,1.26,0,0,0,1.2.87,1.19,1.19,0,0,0,.37-.06,1.24,1.24,0,0,0,.82-1.56A3.47,3.47,0,0,1,95,52,5.89,5.89,0,0,0,95.49,47.32Z" fill="#fff"/><path d="M11.94,215l7.27-9.88a1.25,1.25,0,0,0-1.06-2L0,203.89v2.5l15.66-.66L8.84,215Z" fill="#fff"/><path d="M1.59,13.08h.1a1.25,1.25,0,0,0,1-.51L11.94,0H8.84l-7,9.47L0,5.83v5.46l.58,1.12A1.27,1.27,0,0,0,1.59,13.08Z" fill="#fff"/><path d="M5.31,138.13c1.08-1.16,1.93-2.08,3.88-2.24s2.94.62,4.19,1.59a7.81,7.81,0,0,0,5.93,2.11,1.24,1.24,0,0,0,1.14-1.34,1.25,1.25,0,0,0-1.35-1.15c-1.94.16-2.93-.61-4.18-1.59A7.81,7.81,0,0,0,9,133.4a7.81,7.81,0,0,0-5.51,3A5.54,5.54,0,0,1,0,138.62v2.52A7.87,7.87,0,0,0,5.31,138.13Z" fill="#fff"/><path d="M66.5,212.81a4.88,4.88,0,0,0-1.88-6.62,4.87,4.87,0,0,0-4.74,8.51,5.71,5.71,0,0,0,.67.3H63.9A4.79,4.79,0,0,0,66.5,212.81Zm-5.4-.3a2.36,2.36,0,0,1-.92-3.21,2.32,2.32,0,0,1,1.42-1.13,2.48,2.48,0,0,1,.65-.09,2.35,2.35,0,0,1,1.15.3,2.36,2.36,0,0,1-.5,4.34A2.31,2.31,0,0,1,61.1,212.51Z" fill="#fff"/><path d="M207.7,206.7l7.3-.31v-2.5l-9.36.39a1.25,1.25,0,0,0-1.06,1.82l4.6,8.9H212Z" fill="#fff"/><path d="M165.23,191.71a1.26,1.26,0,0,0,.59-1,1.24,1.24,0,0,0-.56-1.06l-34.55-22.69a1.27,1.27,0,0,0-1.21-.09,1.3,1.3,0,0,0-.72,1L123.06,215h4.63ZM131,170.12l31.23,20.5-36.46,22.62Z" fill="#fff"/><path d="M52.19,50.54a3.68,3.68,0,0,0-5.75-3.62,3.56,3.56,0,0,0-1,1.17,3.66,3.66,0,0,0-6.78-1.17,3.66,3.66,0,0,0-3-3,3.68,3.68,0,1,0-1.24,7.25,3.35,3.35,0,0,0,.63.05,3.65,3.65,0,0,0,2.11-.67,3.71,3.71,0,0,0,1.06-1.17,3.55,3.55,0,0,0,.6,1.45,3.64,3.64,0,0,0,2.38,1.5,3.36,3.36,0,0,0,.63.06A3.7,3.7,0,0,0,45,50.61a3.87,3.87,0,0,0,.6,1.44A3.7,3.7,0,0,0,48,53.55a4.46,4.46,0,0,0,.63.05,3.67,3.67,0,0,0,2.11-.67A3.62,3.62,0,0,0,52.19,50.54Zm-16-2.75A1.18,1.18,0,1,1,35,46.41l.2,0a1.14,1.14,0,0,1,.76.48,1.11,1.11,0,0,1,.2.88Zm5.42,2.13a1.14,1.14,0,0,1-.76-.48,1.2,1.2,0,0,1-.2-.88,1.18,1.18,0,0,1,1.16-1,.65.65,0,0,1,.2,0,1.18,1.18,0,1,1-.4,2.32Zm7.67,1a1.11,1.11,0,0,1-.88.2,1.18,1.18,0,0,1-.77-.48A1.19,1.19,0,0,1,47.89,49a1.17,1.17,0,0,1,.67-.22l.21,0a1.14,1.14,0,0,1,.76.48,1.2,1.2,0,0,1,.2.88A1.14,1.14,0,0,1,49.25,50.88Z" fill="#fff"/><path d="M95.19,90.64a1.24,1.24,0,0,0-1.26-.41L56,99.82a1.29,1.29,0,0,0-.88.82,1.25,1.25,0,0,0,.22,1.18l21.48,26.44a1.24,1.24,0,0,0,1,.46h.15a1.27,1.27,0,0,0,1-.72L95.37,92A1.25,1.25,0,0,0,95.19,90.64ZM77.48,125.12l-19-23.35L92,93.29Z" fill="#fff"/><path d="M85.19,170.78a6.17,6.17,0,0,0-4.72-1.62,3.67,3.67,0,0,1-4.19-3.91A6.11,6.11,0,0,0,69.61,159a3.68,3.68,0,0,1-4.19-3.91,6.18,6.18,0,0,0-1.94-4.6,1.25,1.25,0,0,0-1.7,1.83,3.75,3.75,0,0,1,1.15,3,6.13,6.13,0,0,0,6.67,6.22,3.74,3.74,0,0,1,3,.94,3.79,3.79,0,0,1,1.16,3,6.11,6.11,0,0,0,6.66,6.22,3.68,3.68,0,0,1,4.19,3.91,6.19,6.19,0,0,0,1.94,4.6,1.29,1.29,0,0,0,.86.33,1.21,1.21,0,0,0,.91-.4,1.25,1.25,0,0,0-.06-1.76,3.79,3.79,0,0,1-1.16-3A6.18,6.18,0,0,0,85.19,170.78Z" fill="#fff"/><path d="M123.56,1.73a1.29,1.29,0,0,0,1.33,0L127.69,0h-4.63L123,.52A1.28,1.28,0,0,0,123.56,1.73Z" fill="#fff"/><polygon points="215 5.83 211.99 0 209.18 0 215 11.29 215 5.83" fill="#fff"/><path d="M50.93,209.72a4.94,4.94,0,0,0,2.36.61,4.72,4.72,0,0,0,1.34-.19,4.79,4.79,0,0,0,2.92-2.31,4.86,4.86,0,1,0-8.5-4.73,4.78,4.78,0,0,0-.43,3.7A4.85,4.85,0,0,0,50.93,209.72Zm.3-5.41a2.37,2.37,0,0,1,3.22-.91,2.38,2.38,0,0,1,.92,3.21h0A2.32,2.32,0,0,1,54,207.74a2.35,2.35,0,0,1-1.8-.21A2.39,2.39,0,0,1,51,206.11,2.36,2.36,0,0,1,51.23,204.31Z" fill="#fff"/><path d="M63.58.13,63.9,0H60.55a4.91,4.91,0,0,0,1.69.31A5.09,5.09,0,0,0,63.58.13Z" fill="#fff"/></g></svg>